<svg width="246" height="25" viewBox="0 0 246 25" fill="none" xmlns="http://www.w3.org/2000/svg">
<rect y="0.5" width="24" height="24" rx="12" fill="#FF7A00"/>
<path d="M12 21.3333C16.6023 21.3333 20.3333 17.6023 20.3333 13C20.3333 8.39758 16.6023 4.66663 12 4.66663C7.39758 4.66663 3.66663 8.39758 3.66663 13C3.66663 17.6023 7.39758 21.3333 12 21.3333ZM16.5475 10.8809L11.1666 16.2618L7.6607 12.7559L8.83922 11.5774L11.1666 13.9048L15.369 9.70237L16.5475 10.8809Z" fill="white"/>
<rect x="24" y="10.5" width="50" height="4" fill="#FF7A00"/>
<rect x="74" y="0.5" width="24" height="24" rx="12" fill="#FF7A00"/>
<path d="M86 21.3333C90.6023 21.3333 94.3333 17.6023 94.3333 13C94.3333 8.39758 90.6023 4.66663 86 4.66663C81.3976 4.66663 77.6666 8.39758 77.6666 13C77.6666 17.6023 81.3976 21.3333 86 21.3333ZM90.5475 10.8809L85.1666 16.2618L81.6607 12.7559L82.8392 11.5774L85.1666 13.9048L89.369 9.70237L90.5475 10.8809Z" fill="white"/>
<rect x="98" y="10.5" width="50" height="4" fill="#FF7A00"/>
<rect x="148" y="0.5" width="24" height="24" rx="12" fill="#FF7A00"/>
<path d="M160 21.3333C164.602 21.3333 168.333 17.6023 168.333 13C168.333 8.39758 164.602 4.66663 160 4.66663C155.398 4.66663 151.667 8.39758 151.667 13C151.667 17.6023 155.398 21.3333 160 21.3333ZM164.548 10.8809L159.167 16.2618L155.661 12.7559L156.839 11.5774L159.167 13.9048L163.369 9.70237L164.548 10.8809Z" fill="white"/>
<rect x="172" y="10.5" width="50" height="4" fill="#FF7A00"/>
<rect x="222" y="0.5" width="24" height="24" rx="12" fill="#FF7A00" fill-opacity="0.2"/>
<path d="M236.386 11.144V17.5H234.524V14.07L234.314 13.552L235.182 11.144H236.386ZM230.45 15.218V14.112L232.718 7.966H234.552L232.27 14.266L232.06 13.44H237.674V15.218H230.45Z" fill="black" fill-opacity="0.7"/>
</svg>
