<svg width="246" height="25" viewBox="0 0 246 25" fill="none" xmlns="http://www.w3.org/2000/svg">
<rect y="0.5" width="24" height="24" rx="12" fill="#FF7A00"/>
<path d="M12 21.3333C16.6024 21.3333 20.3334 17.6023 20.3334 13C20.3334 8.39758 16.6024 4.66663 12 4.66663C7.39765 4.66663 3.66669 8.39758 3.66669 13C3.66669 17.6023 7.39765 21.3333 12 21.3333ZM16.5476 10.8809L11.1667 16.2618L7.66076 12.7559L8.83928 11.5774L11.1667 13.9048L15.3691 9.70237L16.5476 10.8809Z" fill="white"/>
<rect x="24" y="10.5" width="50" height="4" fill="#FF7A00"/>
<rect x="74" y="0.5" width="24" height="24" rx="12" fill="#FF7A00"/>
<path d="M86 21.3333C90.6024 21.3333 94.3334 17.6023 94.3334 13C94.3334 8.39758 90.6024 4.66663 86 4.66663C81.3976 4.66663 77.6667 8.39758 77.6667 13C77.6667 17.6023 81.3976 21.3333 86 21.3333ZM90.5476 10.8809L85.1667 16.2618L81.6608 12.7559L82.8393 11.5774L85.1667 13.9048L89.3691 9.70237L90.5476 10.8809Z" fill="white"/>
<rect x="98" y="10.5" width="50" height="4" fill="#FF7A00"/>
<rect x="148" y="0.5" width="24" height="24" rx="12" fill="#FF7A00" fill-opacity="0.2"/>
<path d="M160.028 17.668C159.291 17.668 158.656 17.5373 158.124 17.276C157.592 17.0053 157.107 16.604 156.668 16.072L157.83 14.938C158.138 15.2553 158.451 15.4933 158.768 15.652C159.085 15.8107 159.44 15.89 159.832 15.89C160.336 15.89 160.719 15.7733 160.98 15.54C161.241 15.2973 161.372 14.994 161.372 14.63C161.372 14.294 161.283 14.028 161.106 13.832C160.938 13.636 160.705 13.496 160.406 13.412C160.117 13.3187 159.785 13.272 159.412 13.272C159.3 13.272 159.179 13.2767 159.048 13.286C158.927 13.286 158.81 13.2953 158.698 13.314V11.718C158.847 11.7273 158.964 11.7367 159.048 11.746C159.132 11.746 159.225 11.746 159.328 11.746C159.86 11.746 160.271 11.648 160.56 11.452C160.849 11.2467 160.994 10.962 160.994 10.598C160.994 10.2807 160.891 10.0333 160.686 9.856C160.481 9.67867 160.191 9.59 159.818 9.59C159.473 9.59 159.151 9.66933 158.852 9.828C158.563 9.98667 158.278 10.234 157.998 10.57L156.822 9.408C157.307 8.82933 157.797 8.41867 158.292 8.176C158.787 7.93333 159.356 7.812 160 7.812C160.588 7.812 161.092 7.91933 161.512 8.134C161.932 8.34867 162.254 8.64733 162.478 9.03C162.711 9.41267 162.828 9.856 162.828 10.36C162.828 11.1347 162.543 11.7553 161.974 12.222C161.414 12.6887 160.644 12.922 159.664 12.922V12.04C160.364 12.04 160.98 12.1427 161.512 12.348C162.053 12.5533 162.473 12.8613 162.772 13.272C163.071 13.6827 163.22 14.1913 163.22 14.798C163.22 15.3113 163.094 15.7873 162.842 16.226C162.599 16.6647 162.24 17.0147 161.764 17.276C161.288 17.5373 160.709 17.668 160.028 17.668Z" fill="black" fill-opacity="0.7"/>
<rect x="172" y="10.5" width="50" height="4" fill="#FF7A00" fill-opacity="0.2"/>
<rect x="222" y="0.5" width="24" height="24" rx="12" fill="#FF7A00" fill-opacity="0.2"/>
<path d="M236.386 11.144V17.5H234.524V14.07L234.314 13.552L235.182 11.144H236.386ZM230.45 15.218V14.112L232.718 7.966H234.552L232.27 14.266L232.06 13.44H237.674V15.218H230.45Z" fill="black" fill-opacity="0.7"/>
</svg>
