<svg width="256" height="245" viewBox="0 0 256 245" fill="none" xmlns="http://www.w3.org/2000/svg">
<g clip-path="url(#clip0_4_2)">
<path d="M220.006 202.435C215.686 216.061 210.131 229.658 203.015 242.599C202.857 242.89 202.697 243.176 202.536 243.466L184.918 237.463C185.019 237.188 185.13 236.881 185.249 236.546C192.355 216.753 235.228 96.1623 233.304 72.386C233.511 74.3323 240.218 138.739 220.006 202.435Z" fill="#E6E6E6"/>
<path d="M206.413 243.757C206.174 244.02 205.928 244.282 205.681 244.538L192.464 240.034C192.643 239.802 192.851 239.527 193.09 239.217C197.005 234.069 208.642 218.654 220.006 202.435C232.217 185.006 244.116 166.651 245.783 159.108C245.448 160.823 235.019 213.034 206.413 243.757Z" fill="#E6E6E6"/>
<path d="M213.02 42.9677C213.015 42.9677 213.01 42.9692 213.005 42.9694V12.456C213.005 9.15248 211.787 5.98424 209.618 3.64829C207.449 1.31233 204.507 0 201.44 0H112.741C109.674 0 106.732 1.31233 104.563 3.64829C102.394 5.98424 101.176 9.15248 101.176 12.456V28.0988C100.931 28.1044 100.698 28.2131 100.526 28.4015C100.355 28.5899 100.259 28.8432 100.259 29.107V36.855C100.259 37.1188 100.355 37.372 100.526 37.5604C100.698 37.7488 100.931 37.8574 101.176 37.863V45.9798H101.129C101.005 45.9797 100.883 46.0059 100.77 46.0567C100.656 46.1074 100.552 46.1819 100.465 46.2757C100.378 46.3695 100.309 46.4809 100.262 46.6035C100.215 46.7261 100.19 46.8574 100.19 46.9901V61.9729C100.19 62.1056 100.215 62.237 100.262 62.3595C100.309 62.4821 100.378 62.5935 100.465 62.6873C100.552 62.7812 100.656 62.8556 100.77 62.9064C100.883 62.9571 101.005 62.9833 101.129 62.9833H101.176V68.9339H101.161C101.038 68.9339 100.916 68.96 100.802 69.0108C100.688 69.0616 100.585 69.136 100.498 69.2298C100.411 69.3237 100.341 69.4351 100.294 69.5576C100.247 69.6802 100.223 69.8116 100.223 69.9443V85.0736C100.223 85.2063 100.247 85.3377 100.294 85.4603C100.341 85.5828 100.411 85.6942 100.498 85.7881C100.585 85.8819 100.688 85.9563 100.802 86.0071C100.916 86.0578 101.038 86.084 101.161 86.084H101.176V232.327C101.176 235.63 102.394 238.799 104.563 241.135C106.732 243.471 109.674 244.783 112.741 244.783H201.44C204.507 244.783 207.449 243.471 209.618 241.135C211.787 238.799 213.005 235.63 213.005 232.327V72.6387C213.01 72.6387 213.015 72.6403 213.02 72.6403C213.239 72.6403 213.457 72.5937 213.659 72.5033C213.862 72.4129 214.046 72.2804 214.201 72.1134C214.356 71.9463 214.479 71.748 214.563 71.5297C214.647 71.3114 214.691 71.0775 214.691 70.8412V44.7669C214.691 44.2897 214.515 43.8321 214.201 43.4947C213.888 43.1573 213.463 42.9677 213.02 42.9677Z" fill="#3F3D56"/>
<path d="M206.1 15.9426V228.837C206.099 231.373 205.163 233.806 203.497 235.599C201.832 237.392 199.573 238.4 197.218 238.4H116.963C114.608 238.4 112.349 237.392 110.684 235.599C109.018 233.806 108.082 231.373 108.081 228.837V15.9426C108.081 13.4055 109.017 10.9723 110.683 9.17827C112.348 7.38424 114.608 6.37637 116.963 6.37637H128.973V8.05509C128.974 10.1439 129.744 12.147 131.116 13.624C132.487 15.101 134.347 15.9313 136.286 15.9322H177.117C179.054 15.9276 180.91 15.0956 182.278 13.6189C183.646 12.1421 184.415 10.1412 184.415 8.05509V6.39382H197.218C199.571 6.39382 201.827 7.3993 203.493 9.18955C205.158 10.9798 206.096 13.4085 206.1 15.9426Z" fill="white"/>
<path d="M75.961 119.459C75.4864 119.261 74.9773 119.177 74.4696 119.214C73.9618 119.251 73.4677 119.407 73.0221 119.672C72.5765 119.937 72.1903 120.304 71.8906 120.747C71.5908 121.19 71.385 121.698 71.2874 122.236L42.6885 138.984L47.7169 145.079L74.2761 126.722C75.126 126.839 75.9862 126.615 76.6935 126.095C77.4009 125.574 77.9063 124.792 78.114 123.896C78.3217 123.001 78.2173 122.055 77.8204 121.237C77.4236 120.419 76.7621 119.786 75.961 119.459H75.961Z" fill="#FFB8B8"/>
<path d="M68.6673 239.96L72.2309 237.477L65.036 221.492L59.7763 225.156L68.6673 239.96Z" fill="#FFB8B8"/>
<path d="M81.244 236.253L70.044 244.056L67.245 239.395L74.2795 234.495C75.3843 233.725 76.7277 233.46 78.0141 233.757C79.3006 234.054 80.4248 234.889 81.1394 236.079L81.244 236.254L81.244 236.253Z" fill="#2F2E41"/>
<path d="M28.682 240.538H32.9261L34.9459 222.906H28.682V240.538Z" fill="#FFB8B8"/>
<path d="M41.1115 244.782H27.7726V239.231H36.1505C36.802 239.231 37.4471 239.37 38.049 239.638C38.6509 239.907 39.1978 240.3 39.6584 240.796C40.1191 241.292 40.4845 241.881 40.7338 242.53C40.9831 243.178 41.1115 243.873 41.1115 244.574V244.782Z" fill="#2F2E41"/>
<path d="M126.056 34.5489H117.306C117.091 34.5489 116.885 34.457 116.733 34.2934C116.582 34.1297 116.496 33.9078 116.496 33.6764C116.496 33.445 116.582 33.2231 116.733 33.0594C116.885 32.8958 117.091 32.8039 117.306 32.8039H126.056C126.271 32.8039 126.477 32.8958 126.629 33.0594C126.78 33.2231 126.866 33.445 126.866 33.6764C126.866 33.9078 126.78 34.1297 126.629 34.2934C126.477 34.457 126.271 34.5489 126.056 34.5489Z" fill="#3F3D56"/>
<path d="M126.056 36.992H117.306C117.091 36.992 116.885 36.9001 116.733 36.7364C116.582 36.5728 116.496 36.3509 116.496 36.1195C116.496 35.8881 116.582 35.6661 116.733 35.5025C116.885 35.3389 117.091 35.2469 117.306 35.2469H126.056C126.271 35.2469 126.477 35.3389 126.629 35.5025C126.78 35.6661 126.866 35.8881 126.866 36.1195C126.866 36.3509 126.78 36.5728 126.629 36.7364C126.477 36.9001 126.271 36.992 126.056 36.992Z" fill="#3F3D56"/>
<path d="M126.056 39.435H117.306C117.091 39.435 116.885 39.3431 116.733 39.1795C116.582 39.0159 116.496 38.7939 116.496 38.5625C116.496 38.3311 116.582 38.1092 116.733 37.9456C116.885 37.7819 117.091 37.69 117.306 37.69H126.056C126.271 37.69 126.477 37.7819 126.629 37.9456C126.78 38.1092 126.866 38.3311 126.866 38.5625C126.866 38.7939 126.78 39.0159 126.629 39.1795C126.477 39.3431 126.271 39.435 126.056 39.435Z" fill="#3F3D56"/>
<path d="M193.877 37.0094H193.582L193.468 36.9082C193.841 36.43 194.045 35.8258 194.045 35.2016C194.043 34.688 193.899 34.1868 193.632 33.7614C193.365 33.3359 192.986 33.0053 192.545 32.8113C192.103 32.6173 191.618 32.5687 191.151 32.6716C190.684 32.7745 190.256 33.0243 189.92 33.3894C189.585 33.7545 189.358 34.2185 189.267 34.7227C189.177 35.2269 189.227 35.7487 189.412 36.2221C189.597 36.6955 189.908 37.0993 190.306 37.3823C190.704 37.6653 191.17 37.8149 191.647 37.8121C192.225 37.8077 192.784 37.5883 193.229 37.1909L193.339 37.2921V37.6132L195.199 39.62L195.756 39.0197L193.877 37.0094ZM191.647 37.0094C191.315 37.0108 190.99 36.9061 190.714 36.7086C190.437 36.5111 190.221 36.2297 190.092 35.8999C189.964 35.5701 189.93 35.2067 189.993 34.8558C190.057 34.5048 190.215 34.182 190.449 33.9282C190.683 33.6744 190.982 33.501 191.307 33.4298C191.632 33.3587 191.97 33.3931 192.277 33.5287C192.584 33.6642 192.847 33.8949 193.033 34.1914C193.218 34.4879 193.318 34.837 193.319 35.1946L193.319 35.2016C193.321 35.4376 193.279 35.6716 193.196 35.8902C193.113 36.1088 192.992 36.3077 192.837 36.4756C192.683 36.6434 192.5 36.777 192.298 36.8686C192.096 36.9602 191.879 37.008 191.66 37.0094C191.656 37.0094 191.652 37.0094 191.647 37.0094H191.647Z" fill="#3F3D56"/>
<path d="M143.88 66.6575H128.162C127.217 66.6575 126.31 66.2531 125.641 65.5331C124.973 64.8131 124.597 63.8367 124.597 62.8185C124.597 61.8003 124.973 60.8238 125.641 60.1038C126.31 59.3839 127.217 58.9794 128.162 58.9794H143.88C144.826 58.9794 145.732 59.3839 146.401 60.1038C147.069 60.8238 147.445 61.8003 147.445 62.8185C147.445 63.8367 147.069 64.8131 146.401 65.5331C145.732 66.2531 144.826 66.6575 143.88 66.6575Z" fill="#FF7A00"/>
<path d="M192 75.0337H126.542C126.026 75.0337 125.532 74.8131 125.167 74.4204C124.802 74.0277 124.597 73.4951 124.597 72.9397C124.597 72.3843 124.802 71.8517 125.167 71.459C125.532 71.0663 126.026 70.8456 126.542 70.8456H192C192.516 70.8456 193.01 71.0663 193.375 71.459C193.739 71.8517 193.944 72.3843 193.944 72.9397C193.944 73.4951 193.739 74.0277 193.375 74.4204C193.01 74.8131 192.516 75.0337 192 75.0337Z" fill="#E6E6E6"/>
<path d="M150.586 83.4099H126.542C126.026 83.4099 125.532 83.1893 125.167 82.7966C124.802 82.4038 124.597 81.8712 124.597 81.3158C124.597 80.7605 124.802 80.2278 125.167 79.8351C125.532 79.4424 126.026 79.2218 126.542 79.2218H150.586C151.102 79.2218 151.597 79.4424 151.961 79.8351C152.326 80.2278 152.531 80.7605 152.531 81.3158C152.531 81.8712 152.326 82.4038 151.961 82.7966C151.597 83.1893 151.102 83.4099 150.586 83.4099Z" fill="#E6E6E6"/>
<path d="M143.88 159.493H128.162C127.217 159.493 126.31 159.089 125.641 158.369C124.973 157.649 124.597 156.672 124.597 155.654C124.597 154.636 124.973 153.66 125.641 152.94C126.31 152.22 127.217 151.815 128.162 151.815H143.88C144.826 151.815 145.732 152.22 146.401 152.94C147.069 153.66 147.445 154.636 147.445 155.654C147.445 156.672 147.069 157.649 146.401 158.369C145.732 159.089 144.826 159.493 143.88 159.493Z" fill="#FF7A00"/>
<path d="M192 167.869H126.542C126.026 167.869 125.532 167.649 125.167 167.256C124.802 166.863 124.597 166.331 124.597 165.775C124.597 165.22 124.802 164.687 125.167 164.295C125.532 163.902 126.026 163.681 126.542 163.681H192C192.516 163.681 193.01 163.902 193.375 164.295C193.739 164.687 193.944 165.22 193.944 165.775C193.944 166.331 193.739 166.863 193.375 167.256C193.01 167.649 192.516 167.869 192 167.869Z" fill="#E6E6E6"/>
<path d="M150.586 176.246H126.542C126.026 176.246 125.532 176.025 125.167 175.632C124.802 175.24 124.597 174.707 124.597 174.152C124.597 173.596 124.802 173.064 125.167 172.671C125.532 172.278 126.026 172.058 126.542 172.058H150.586C151.102 172.058 151.597 172.278 151.961 172.671C152.326 173.064 152.531 173.596 152.531 174.152C152.531 174.707 152.326 175.24 151.961 175.632C151.597 176.025 151.102 176.246 150.586 176.246Z" fill="#E6E6E6"/>
<path d="M143.88 202.421H128.162C127.217 202.421 126.31 202.017 125.641 201.297C124.973 200.577 124.597 199.6 124.597 198.582C124.597 197.564 124.973 196.587 125.641 195.867C126.31 195.147 127.217 194.743 128.162 194.743H143.88C144.826 194.743 145.732 195.147 146.401 195.867C147.069 196.587 147.445 197.564 147.445 198.582C147.445 199.6 147.069 200.577 146.401 201.297C145.732 202.017 144.826 202.421 143.88 202.421Z" fill="#FF7A00"/>
<path d="M192 210.797H126.542C126.026 210.797 125.532 210.577 125.167 210.184C124.802 209.791 124.597 209.259 124.597 208.703C124.597 208.148 124.802 207.615 125.167 207.223C125.532 206.83 126.026 206.609 126.542 206.609H192C192.516 206.609 193.01 206.83 193.375 207.223C193.739 207.615 193.944 208.148 193.944 208.703C193.944 209.259 193.739 209.791 193.375 210.184C193.01 210.577 192.516 210.797 192 210.797Z" fill="#E6E6E6"/>
<path d="M150.586 219.174H126.542C126.026 219.174 125.532 218.953 125.167 218.56C124.802 218.167 124.597 217.635 124.597 217.079C124.597 216.524 124.802 215.991 125.167 215.599C125.532 215.206 126.026 214.985 126.542 214.985H150.586C151.102 214.985 151.597 215.206 151.961 215.599C152.326 215.991 152.531 216.524 152.531 217.079C152.531 217.635 152.326 218.167 151.961 218.56C151.597 218.953 151.102 219.174 150.586 219.174Z" fill="#E6E6E6"/>
<path d="M201.235 137.68H76.1519C75.4216 137.68 74.7215 137.367 74.2052 136.811C73.6888 136.254 73.3983 135.5 73.3975 134.714V98.0682C73.3983 97.2817 73.6888 96.5276 74.2051 95.9715C74.7215 95.4153 75.4216 95.1025 76.1519 95.1016H201.235C201.966 95.1025 202.666 95.4154 203.182 95.9715C203.699 96.5277 203.989 97.2817 203.99 98.0682V134.714C203.989 135.5 203.699 136.254 203.182 136.811C202.666 137.367 201.966 137.68 201.235 137.68Z" fill="#FF7A00"/>
<path d="M31.1839 181.278C32.3797 190.314 26.0477 230.345 26.7509 230.342L35.8438 230.289C36.1678 229.619 40.3416 208.019 41.6507 204.554C43.4784 199.744 45.3222 194.876 46.0416 189.738C46.7189 184.915 46.3851 180.001 45.9444 175.146C45.9649 175.002 45.9532 174.854 45.9103 174.716C45.8674 174.577 45.7945 174.451 45.6976 174.349C45.6008 174.247 45.4827 174.171 45.3532 174.127C45.2237 174.084 45.0865 174.074 44.9528 174.099L32.7523 173.422C30.2377 173.283 29.6414 172.689 30.0238 175.349C30.2895 177.335 30.9182 179.268 31.1839 181.278Z" fill="#2F2E41"/>
<path d="M33.5819 159.308C31.1029 163.147 28.504 167.566 29.3271 172.162C29.9525 175.652 32.4218 178.357 34.7517 180.887C44.0649 190.96 62.4289 235.402 62.4289 235.402C71.2911 229.295 62.2177 235.577 71.2107 229.12C70.4135 229.054 52.3023 158.935 50.8019 158.841C44.7325 158.408 39.4958 157.769 33.5819 159.308Z" fill="#2F2E41"/>
<path d="M43.3872 122.768C42.128 121.558 33.2793 117.829 33.2793 117.829C33.1166 117.805 32.9515 117.811 32.7904 117.844C32.2868 117.981 32.057 118.655 32.1646 119.2C32.2722 119.745 31.3897 128.702 31.1624 132.775C30.7639 139.883 34.6506 155.985 34.6164 156.477C34.4832 158.233 33.7694 159.879 32.6046 161.116C32.9073 161.521 52.1335 162.332 53.4413 162.812C53.7053 162.451 51.9526 136.911 51.872 135.468C51.7375 133.278 45.0494 124.426 43.3872 122.768Z" fill="#E6E6E6"/>
<path d="M29.6742 178.186C30.1298 177.941 30.5302 177.593 30.8471 177.164C31.164 176.735 31.3898 176.236 31.5085 175.703C31.6272 175.17 31.6359 174.616 31.5341 174.079C31.4322 173.542 31.2223 173.035 30.9191 172.595L39.031 124.244L31.4612 124.136L25.8279 171.95C25.175 172.547 24.7484 173.382 24.6288 174.296C24.5093 175.21 24.7051 176.139 25.1792 176.908C25.6533 177.676 26.3728 178.231 27.2012 178.466C28.0297 178.702 28.9096 178.602 29.6742 178.186H29.6742Z" fill="#FFB8B8"/>
<path d="M29.609 127.831C29.2933 127.856 28.9789 127.768 28.7146 127.58C28.2642 127.165 31.939 120.809 32.6648 120.715C35.0272 120.422 37.4575 120.324 39.7486 121.012C42.0396 121.699 44.1945 123.263 45.2185 125.577C45.6463 126.54 42.5451 131.388 41.1355 130.676C39.4472 129.824 31.832 127.891 29.609 127.831Z" fill="#E6E6E6"/>
<path d="M37.947 117.308C42.6429 117.308 46.4497 113.208 46.4497 108.15C46.4497 103.093 42.6429 98.9927 37.947 98.9927C33.2511 98.9927 29.4443 103.093 29.4443 108.15C29.4443 113.208 33.2511 117.308 37.947 117.308Z" fill="#FFB8B8"/>
<path d="M29.5955 123.291C30.7771 123.425 31.9708 123.236 33.0674 122.744C34.164 122.252 35.1286 121.472 35.8728 120.474C36.617 119.477 37.1171 118.295 37.3274 117.035C37.5377 115.776 37.4514 114.48 37.0764 113.266C36.738 112.17 36.1724 111.166 35.8626 110.061C35.5527 108.955 35.5442 107.648 36.2315 106.762C37.5762 105.028 40.1681 106.119 42.2411 105.774C44.4501 105.407 46.1447 103.124 46.3215 100.725C46.4983 98.325 45.3369 95.9503 43.6081 94.4245C41.8793 92.8988 39.6496 92.1475 37.4252 91.9121C34.5685 91.6098 31.6876 92.1047 29.06 93.3492C26.4324 94.5937 24.1466 96.5458 22.4226 99.0176C20.6986 101.489 19.5945 104.398 19.2166 107.462C18.8388 110.527 19.1999 113.645 20.2652 116.515C21.1945 119.02 22.7125 121.352 24.8686 122.724C27.0247 124.095 29.8724 124.359 32.0213 122.974" fill="#2F2E41"/>
<path d="M120.637 111.854H98.9077C97.5278 111.854 96.4051 110.132 96.4051 108.015C96.4051 105.898 97.5278 104.176 98.9078 104.176H120.637C122.017 104.176 123.139 105.898 123.139 108.015C123.139 110.132 122.017 111.854 120.637 111.854Z" fill="white"/>
<path d="M179.038 120.23H98.3494C97.8337 120.23 97.3392 120.009 96.9745 119.617C96.6099 119.224 96.4051 118.691 96.4051 118.136C96.4051 117.581 96.6099 117.048 96.9745 116.655C97.3392 116.263 97.8337 116.042 98.3494 116.042H179.038C179.554 116.042 180.048 116.263 180.413 116.655C180.777 117.048 180.982 117.581 180.982 118.136C180.982 118.691 180.777 119.224 180.413 119.617C180.048 120.009 179.554 120.23 179.038 120.23Z" fill="#E6E6E6"/>
<path d="M137.624 128.606H98.3494C97.8337 128.606 97.3392 128.386 96.9745 127.993C96.6099 127.6 96.4051 127.068 96.4051 126.512C96.4051 125.957 96.6099 125.424 96.9745 125.031C97.3392 124.639 97.8337 124.418 98.3494 124.418H137.624C138.14 124.418 138.635 124.639 138.999 125.031C139.364 125.424 139.569 125.957 139.569 126.512C139.569 127.068 139.364 127.6 138.999 127.993C138.635 128.386 138.14 128.606 137.624 128.606Z" fill="#E6E6E6"/>
<path d="M256 244.302H0V245H256V244.302Z" fill="#3F3D56"/>
</g>
<defs>
<clipPath id="clip0_4_2">
<rect width="256" height="245" fill="white"/>
</clipPath>
</defs>
</svg>
